#Barrel_Red_(39)_22415_139.obj

v 0.006299827 -0.03572798 -7.225623E-07
v -0.03408996 -0.01240865 1.194354E-07
v -0.01813861 -0.03141929 -5.654675E-07
v 0.02779089 0.02331896 -4.8229E-07
v -0.01813861 0.03141855 -6.226227E-07
v -0.03408996 0.01240791 9.686313E-08
v 0.006299829 0.03572724 -7.875555E-07
v 0.03627976 -3.716815E-07 3.266724E-07
v 0.02779089 -0.0233197 -4.398691E-07
v 0.03627976 -3.716815E-07 3.266724E-07
v 0.02779103 0.02331896 0.1000006
v 0.02779089 0.02331896 -4.8229E-07
v 0.03627947 -3.698973E-07 0.1000002
v 0.006299371 0.03572724 0.1000002
v 0.006299829 0.03572724 -7.875555E-07
v 0.02779089 -0.0233197 -4.398691E-07
v 0.02779103 -0.0233197 0.1000007
v 0.006299829 0.03572724 -7.875555E-07
v -0.01813847 0.03141855 0.1000005
v -0.01813861 0.03141855 -6.226227E-07
v 0.006299371 0.03572724 0.1000002
v -0.03409025 0.01240791 0.09999992
v -0.03408996 0.01240791 9.686313E-08
v -0.03408996 0.01240791 9.686313E-08
v -0.03409025 -0.01240865 0.09999994
v -0.03408996 -0.01240865 1.194354E-07
v -0.03409025 0.01240791 0.09999992
v -0.01813847 -0.03141929 0.1000005
v -0.01813861 -0.03141929 -5.654675E-07
v -0.01813861 -0.03141929 -5.654675E-07
v 0.006299369 -0.03572798 0.1000003
v 0.006299827 -0.03572798 -7.225623E-07
v -0.01813847 -0.03141929 0.1000005
v 0.02779103 -0.0233197 0.1000007
v 0.02779089 -0.0233197 -4.398691E-07
v 0.03627947 -3.698973E-07 0.1000002
v 0.006299371 0.03572724 0.1000002
v 0.02779103 0.02331896 0.1000006
v -0.01813847 -0.03141929 0.1000005
v -0.03409025 0.01240791 0.09999992
v -0.01813847 0.03141855 0.1000005
v -0.03409025 -0.01240865 0.09999994
v 0.006299369 -0.03572798 0.1000003
v 0.02779103 -0.0233197 0.1000007

vn -0.1331787 -0.003704071 -0.9912109
vn -0.1331787 -0.003704071 -0.9912109
vn -0.1331787 -0.003704071 -0.9912109
vn -0.1331787 -0.003704071 -0.9912109
vn -0.1331787 -0.003704071 -0.9912109
vn -0.1331787 -0.003704071 -0.9912109
vn -0.1331787 -0.003704071 -0.9912109
vn -0.1331787 -0.003704071 -0.9912109
vn -0.1331787 -0.003704071 -0.9912109
vn 0.9907227 -0.003704071 -0.1368408
vn 0.7592773 0.6420898 -0.1048584
vn 0.7592773 0.6420898 -0.1048584
vn 0.9907227 -0.003704071 -0.1368408
vn 0.1732178 0.984375 -0.02392578
vn 0.1732178 0.984375 -0.02392578
vn 0.7568359 -0.6420898 -0.1242065
vn 0.7568359 -0.6420898 -0.1242065
vn 0.1732178 0.984375 -0.02392578
vn -0.4960938 0.8657227 0.06854248
vn -0.4960938 0.8657227 0.06854248
vn 0.1732178 0.984375 -0.02392578
vn -0.9389648 0.3388672 0.05697632
vn -0.9389648 0.3388672 0.05697632
vn -0.9389648 0.3388672 0.05697632
vn -0.9394531 -0.3383789 0.05526733
vn -0.9394531 -0.3383789 0.05526733
vn -0.9389648 0.3388672 0.05697632
vn -0.4963379 -0.8652344 0.06854248
vn -0.4963379 -0.8652344 0.06854248
vn -0.4963379 -0.8652344 0.06854248
vn 0.1710205 -0.984375 -0.04071045
vn 0.1710205 -0.984375 -0.04071045
vn -0.4963379 -0.8652344 0.06854248
vn 0.7568359 -0.6420898 -0.1242065
vn 0.7568359 -0.6420898 -0.1242065
vn 0.1405029 -0.003705978 0.9902344
vn 0.1405029 -0.003705978 0.9902344
vn 0.1405029 -0.003705978 0.9902344
vn 0.1405029 -0.003705978 0.9902344
vn 0.1405029 -0.003705978 0.9902344
vn 0.1405029 -0.003705978 0.9902344
vn 0.1405029 -0.003705978 0.9902344
vn 0.1405029 -0.003705978 0.9902344
vn 0.1405029 -0.003705978 0.9902344

vt 0.08544922 0.5639648
vt 0.114563 0.5639648
vt 0.1000366 0.559082
vt 0.09228516 0.6030273
vt 0.1194458 0.5932617
vt 0.1223755 0.5776367
vt 0.1077881 0.6030273
vt 0.08062744 0.5932617
vt 0.07769775 0.5776367
vt 0.1583252 0.5
vt 0.1708984 0.5541992
vt 0.1708984 0.5
vt 0.1583252 0.5541992
vt 0.1824951 0.5541992
vt 0.1824951 0.5
vt 0.1466064 0.5
vt 0.1466064 0.5541992
vt 0.07476807 0.5
vt 0.08740234 0.5541992
vt 0.08740234 0.5
vt 0.07476807 0.5541992
vt 0.09906006 0.5541992
vt 0.09906006 0.5
vt 0.09906006 0.5
vt 0.1107178 0.5541992
vt 0.1107178 0.5
vt 0.09906006 0.5541992
vt 0.1233521 0.5541992
vt 0.1233521 0.5
vt 0.1233521 0.5
vt 0.1350098 0.5541992
vt 0.1350098 0.5
vt 0.1233521 0.5541992
vt 0.1466064 0.5541992
vt 0.1466064 0.5
vt 0.138916 0.5610352
vt 0.171875 0.5610352
vt 0.1553955 0.5551758
vt 0.1466064 0.6049805
vt 0.1777344 0.5942383
vt 0.1806641 0.5766602
vt 0.1640625 0.6049805
vt 0.1330566 0.5942383
vt 0.130127 0.5766602

g Barrel_Red_(39)_22415_139
usemtl Barrel_Red_(39)_22415_139
usemap Barrel_Red_(39)_22415_139
f 1/1/1 3/3/3 2/2/2
f 1/1/1 2/2/2 4/4/4
f 2/2/2 5/5/5 4/4/4
f 2/2/2 6/6/6 5/5/5
f 5/5/5 7/7/7 4/4/4
f 1/1/1 4/4/4 8/8/8
f 9/9/9 1/1/1 8/8/8
f 10/10/10 12/12/12 11/11/11
f 11/11/11 13/13/13 10/10/10
f 14/14/14 11/11/11 12/12/12
f 12/12/12 15/15/15 14/14/14
f 16/16/16 10/10/10 13/13/13
f 13/13/13 17/17/17 16/16/16
f 18/18/18 20/20/20 19/19/19
f 19/19/19 21/21/21 18/18/18
f 22/22/22 19/19/19 20/20/20
f 20/20/20 23/23/23 22/22/22
f 24/24/24 26/26/26 25/25/25
f 25/25/25 27/27/27 24/24/24
f 28/28/28 25/25/25 26/26/26
f 26/26/26 29/29/29 28/28/28
f 30/30/30 32/32/32 31/31/31
f 31/31/31 33/33/33 30/30/30
f 34/34/34 31/31/31 32/32/32
f 32/32/32 35/35/35 34/34/34
f 36/36/36 38/38/38 37/37/37
f 36/36/36 37/37/37 39/39/39
f 37/37/37 40/40/40 39/39/39
f 37/37/37 41/41/41 40/40/40
f 40/40/40 42/42/42 39/39/39
f 36/36/36 39/39/39 43/43/43
f 44/44/44 36/36/36 43/43/43
