#Barrel_Red_(8)_22444_563.obj

v 0.006299423 -0.03572806 -3.939641E-07
v -0.03409114 -0.01240872 -1.982083E-07
v -0.01813893 -0.03141937 -1.000705E-06
v 0.02779099 0.02331888 -3.399147E-07
v -0.01813893 0.03141847 -1.065868E-06
v -0.03409114 0.01240784 -2.239431E-07
v 0.00629942 0.03572717 -4.680633E-07
v 0.03627906 -4.441859E-07 -3.419381E-07
v 0.02779099 -0.02331978 -2.915503E-07
v 0.03627906 -4.441859E-07 -3.419381E-07
v 0.02779037 0.02331888 0.1000003
v 0.02779099 0.02331888 -3.399147E-07
v 0.03627843 -4.437372E-07 0.1000003
v 0.0062988 0.03572717 0.1000002
v 0.00629942 0.03572717 -4.680633E-07
v 0.02779099 -0.02331978 -2.915503E-07
v 0.02779038 -0.02331978 0.1000003
v 0.00629942 0.03572717 -4.680633E-07
v -0.01813883 0.03141847 0.1000005
v -0.01813893 0.03141847 -1.065868E-06
v 0.0062988 0.03572717 0.1000002
v -0.0340908 0.01240784 0.09999967
v -0.03409114 0.01240784 -2.239431E-07
v -0.03409114 0.01240784 -2.239431E-07
v -0.0340908 -0.01240872 0.0999997
v -0.03409114 -0.01240872 -1.982083E-07
v -0.0340908 0.01240784 0.09999967
v -0.01813882 -0.03141937 0.1000006
v -0.01813893 -0.03141937 -1.000705E-06
v -0.01813893 -0.03141937 -1.000705E-06
v 0.006298804 -0.03572805 0.1000002
v 0.006299423 -0.03572806 -3.939641E-07
v -0.01813882 -0.03141937 0.1000006
v 0.02779038 -0.02331978 0.1000003
v 0.02779099 -0.02331978 -2.915503E-07
v 0.03627843 -4.437372E-07 0.1000003
v 0.0062988 0.03572717 0.1000002
v 0.02779037 0.02331888 0.1000003
v -0.01813882 -0.03141937 0.1000006
v -0.0340908 0.01240784 0.09999967
v -0.01813883 0.03141847 0.1000005
v -0.0340908 -0.01240872 0.0999997
v 0.006298804 -0.03572805 0.1000002
v 0.02779038 -0.02331978 0.1000003

vn 0.6064453 -0.003704071 -0.7949219
vn 0.6064453 -0.003704071 -0.7949219
vn 0.6064453 -0.003704071 -0.7949219
vn 0.6064453 -0.003704071 -0.7949219
vn 0.6064453 -0.003704071 -0.7949219
vn 0.6064453 -0.003704071 -0.7949219
vn 0.6064453 -0.003704071 -0.7949219
vn 0.6064453 -0.003704071 -0.7949219
vn 0.6064453 -0.003704071 -0.7949219
vn 0.7973633 -0.003704071 0.6035156
vn 0.6108398 0.6420898 0.4626465
vn 0.6108398 0.6420898 0.4626465
vn 0.7973633 -0.003704071 0.6035156
vn 0.1394043 0.984375 0.1055908
vn 0.1394043 0.984375 0.1055908
vn 0.6230469 -0.6420898 0.4472656
vn 0.6230469 -0.6420898 0.4472656
vn 0.1394043 0.984375 0.1055908
vn -0.3991699 0.8657227 -0.3022461
vn -0.3991699 0.8657227 -0.3022461
vn 0.1394043 0.984375 0.1055908
vn -0.7045898 0.3388672 -0.6235352
vn -0.7045898 0.3388672 -0.6235352
vn -0.7045898 0.3388672 -0.6235352
vn -0.703125 -0.3383789 -0.625
vn -0.703125 -0.3383789 -0.625
vn -0.7045898 0.3388672 -0.6235352
vn -0.3994141 -0.8652344 -0.3024902
vn -0.3994141 -0.8652344 -0.3024902
vn -0.3994141 -0.8652344 -0.3024902
vn 0.1496582 -0.984375 0.09210205
vn 0.1496582 -0.984375 0.09210205
vn -0.3994141 -0.8652344 -0.3024902
vn 0.6230469 -0.6420898 0.4472656
vn 0.6230469 -0.6420898 0.4472656
vn -0.6005859 -0.003705978 0.7993164
vn -0.6005859 -0.003705978 0.7993164
vn -0.6005859 -0.003705978 0.7993164
vn -0.6005859 -0.003705978 0.7993164
vn -0.6005859 -0.003705978 0.7993164
vn -0.6005859 -0.003705978 0.7993164
vn -0.6005859 -0.003705978 0.7993164
vn -0.6005859 -0.003705978 0.7993164
vn -0.6005859 -0.003705978 0.7993164

vt 0.08544922 0.5639648
vt 0.114563 0.5639648
vt 0.1000366 0.559082
vt 0.09228516 0.6030273
vt 0.1194458 0.5932617
vt 0.1223755 0.5776367
vt 0.1077881 0.6030273
vt 0.08062744 0.5932617
vt 0.07769775 0.5776367
vt 0.1583252 0.5
vt 0.1708984 0.5541992
vt 0.1708984 0.5
vt 0.1583252 0.5541992
vt 0.1824951 0.5541992
vt 0.1824951 0.5
vt 0.1466064 0.5
vt 0.1466064 0.5541992
vt 0.07476807 0.5
vt 0.08740234 0.5541992
vt 0.08740234 0.5
vt 0.07476807 0.5541992
vt 0.09906006 0.5541992
vt 0.09906006 0.5
vt 0.09906006 0.5
vt 0.1107178 0.5541992
vt 0.1107178 0.5
vt 0.09906006 0.5541992
vt 0.1233521 0.5541992
vt 0.1233521 0.5
vt 0.1233521 0.5
vt 0.1350098 0.5541992
vt 0.1350098 0.5
vt 0.1233521 0.5541992
vt 0.1466064 0.5541992
vt 0.1466064 0.5
vt 0.138916 0.5610352
vt 0.171875 0.5610352
vt 0.1553955 0.5551758
vt 0.1466064 0.6049805
vt 0.1777344 0.5942383
vt 0.1806641 0.5766602
vt 0.1640625 0.6049805
vt 0.1330566 0.5942383
vt 0.130127 0.5766602

g Barrel_Red_(8)_22444_563
usemtl Barrel_Red_(8)_22444_563
usemap Barrel_Red_(8)_22444_563
f 1/1/1 3/3/3 2/2/2
f 1/1/1 2/2/2 4/4/4
f 2/2/2 5/5/5 4/4/4
f 2/2/2 6/6/6 5/5/5
f 5/5/5 7/7/7 4/4/4
f 1/1/1 4/4/4 8/8/8
f 9/9/9 1/1/1 8/8/8
f 10/10/10 12/12/12 11/11/11
f 11/11/11 13/13/13 10/10/10
f 14/14/14 11/11/11 12/12/12
f 12/12/12 15/15/15 14/14/14
f 16/16/16 10/10/10 13/13/13
f 13/13/13 17/17/17 16/16/16
f 18/18/18 20/20/20 19/19/19
f 19/19/19 21/21/21 18/18/18
f 22/22/22 19/19/19 20/20/20
f 20/20/20 23/23/23 22/22/22
f 24/24/24 26/26/26 25/25/25
f 25/25/25 27/27/27 24/24/24
f 28/28/28 25/25/25 26/26/26
f 26/26/26 29/29/29 28/28/28
f 30/30/30 32/32/32 31/31/31
f 31/31/31 33/33/33 30/30/30
f 34/34/34 31/31/31 32/32/32
f 32/32/32 35/35/35 34/34/34
f 36/36/36 38/38/38 37/37/37
f 36/36/36 37/37/37 39/39/39
f 37/37/37 40/40/40 39/39/39
f 37/37/37 41/41/41 40/40/40
f 40/40/40 42/42/42 39/39/39
f 36/36/36 39/39/39 43/43/43
f 44/44/44 36/36/36 43/43/43
