#Palm_Tree_(50)_23951_748.obj

v 0.1616519 -0.009192638 6.282519E-05
v 0.1616519 -0.00632854 0.4323984
v -0.1562403 -0.006328415 0.4323984
v -0.1562403 -0.009192512 6.282437E-05
v 0.005385907 -0.1630839 0.00108231
v 0.005385907 -0.1602198 0.4334179
v 0.005386032 0.1576653 0.431312
v 0.005386032 0.1548012 -0.001023586

vn 1 0 -0.003913879
vn 1 0 -0.003913879
vn 1 0 -0.003913879
vn 1 0 -0.003913879
vn 0.003913879 0 1
vn 0.003913879 0 1
vn 0.003913879 0 1
vn 0.003913879 0 1

vt 0.1542969 0.8876953
vt 0.001263618 0.8876953
vt 0.001263618 0.9985352
vt 0.1542969 0.9985352
vt 0.1542969 0.8876953
vt 0.001263618 0.8876953
vt 0.001263618 0.9985352
vt 0.1542969 0.9985352

g Palm_Tree_(50)_23951_748
usemtl Palm_Tree_(50)_23951_748
usemap Palm_Tree_(50)_23951_748
f 1/1/1 3/3/3 2/2/2
f 1/1/1 4/4/4 3/3/3
f 5/5/5 7/7/7 6/6/6
f 5/5/5 8/8/8 7/7/7
