#Palm_Tree_(86)_23873_911.obj

v 0.1616518 -0.009192514 1.829147E-06
v 0.1616518 -0.009191248 0.4323469
v -0.1562404 -0.009191248 0.4323469
v -0.1562404 -0.009192514 1.829147E-06
v 0.005385031 -0.1630851 1.829418E-06
v 0.005385031 -0.1630863 0.4323469
v 0.005385031 0.1548058 0.4323469
v 0.005385031 0.1548069 1.799269E-06

vn -0.003921509 2.920628E-06 -1
vn -0.003921509 2.920628E-06 -1
vn -0.003921509 2.920628E-06 -1
vn -0.003921509 2.920628E-06 -1
vn 1 0 -0.003921509
vn 1 0 -0.003921509
vn 1 0 -0.003921509
vn 1 0 -0.003921509

vt 0.1542969 0.8876953
vt 0.001263618 0.8876953
vt 0.001263618 0.9985352
vt 0.1542969 0.9985352
vt 0.1542969 0.8876953
vt 0.001263618 0.8876953
vt 0.001263618 0.9985352
vt 0.1542969 0.9985352

g Palm_Tree_(86)_23873_911
usemtl Palm_Tree_(86)_23873_911
usemap Palm_Tree_(86)_23873_911
f 1/1/1 3/3/3 2/2/2
f 1/1/1 4/4/4 3/3/3
f 5/5/5 7/7/7 6/6/6
f 5/5/5 8/8/8 7/7/7
