#Palm_Tree_(131)_23953_479.obj

v 0.1616524 -0.009191571 1.838502E-06
v 0.1616517 -0.009192505 0.432347
v -0.1562395 -0.009191358 0.432347
v -0.1562394 -0.009192744 1.82512E-06
v 0.005386446 -0.1630868 1.874921E-06
v 0.005386428 -0.1630854 0.432347
v 0.005385254 0.1548061 0.432347
v 0.005385894 0.154807 1.75652E-06

vn -0.2626953 3.039837E-06 -0.9648438
vn -0.2626953 3.039837E-06 -0.9648438
vn -0.2626953 3.039837E-06 -0.9648438
vn -0.2626953 3.039837E-06 -0.9648438
vn 0.9648438 -5.960464E-08 -0.2626953
vn 0.9648438 -5.960464E-08 -0.2626953
vn 0.9648438 -5.960464E-08 -0.2626953
vn 0.9648438 -5.960464E-08 -0.2626953

vt 0.1542969 0.8876953
vt 0.001263618 0.8876953
vt 0.001263618 0.9985352
vt 0.1542969 0.9985352
vt 0.1542969 0.8876953
vt 0.001263618 0.8876953
vt 0.001263618 0.9985352
vt 0.1542969 0.9985352

g Palm_Tree_(131)_23953_479
usemtl Palm_Tree_(131)_23953_479
usemap Palm_Tree_(131)_23953_479
f 1/1/1 3/3/3 2/2/2
f 1/1/1 4/4/4 3/3/3
f 5/5/5 7/7/7 6/6/6
f 5/5/5 8/8/8 7/7/7
