#Palm_Tree_23771_799.obj

v 0.161652 -0.009193123 1.662541E-06
v 0.161652 -0.009193181 0.4323468
v -0.1562401 -0.009193646 0.4323468
v -0.1562401 -0.009193589 1.662541E-06
v 0.005385928 -0.1630872 1.642049E-06
v 0.005385928 -0.1630872 0.4323467
v 0.005386316 0.1548036 0.4323468
v 0.005386316 0.1548036 1.684379E-06

vn -0.7075195 0 -0.706543
vn -0.7075195 0 -0.706543
vn -0.7075195 0 -0.706543
vn -0.7075195 0 -0.706543
vn 0.706543 0 -0.7075195
vn 0.706543 0 -0.7075195
vn 0.706543 0 -0.7075195
vn 0.706543 0 -0.7075195

vt 0.1542969 0.8876953
vt 0.001263618 0.8876953
vt 0.001263618 0.9985352
vt 0.1542969 0.9985352
vt 0.1542969 0.8876953
vt 0.001263618 0.8876953
vt 0.001263618 0.9985352
vt 0.1542969 0.9985352

g Palm_Tree_23771_799
usemtl Palm_Tree_23771_799
usemap Palm_Tree_23771_799
f 1/1/1 3/3/3 2/2/2
f 1/1/1 4/4/4 3/3/3
f 5/5/5 7/7/7 6/6/6
f 5/5/5 8/8/8 7/7/7
