#Palm_Tree_23450_918.obj

v 0.005384887 0.1548052 1.759471E-06
v 0.005384887 0.1548051 0.4323469
v 0.005384747 -0.1630865 1.717142E-06
v 0.005384747 -0.1630865 0.4323468
v -0.1562426 -0.009192612 1.737634E-06
v -0.1562426 -0.00919267 0.4323469
v 0.1616494 -0.009192753 1.737634E-06
v 0.1616494 -0.009192809 0.4323469

vn -0.7075195 0 0.706543
vn -0.7075195 0 0.706543
vn -0.7075195 0 0.706543
vn -0.7075195 0 0.706543
vn -0.706543 0 -0.7075195
vn -0.706543 0 -0.7075195
vn -0.706543 0 -0.7075195
vn -0.706543 0 -0.7075195

vt 0.1542969 0.9985352
vt 0.001263618 0.9985352
vt 0.1542969 0.8876953
vt 0.001263618 0.8876953
vt 0.1542969 0.9985352
vt 0.001263618 0.9985352
vt 0.1542969 0.8876953
vt 0.001263618 0.8876953

g Palm_Tree_23450_918
usemtl Palm_Tree_23450_918
usemap Palm_Tree_23450_918
f 1/1/1 3/3/3 2/2/2
f 2/2/2 3/3/3 4/4/4
f 5/5/5 7/7/7 6/6/6
f 6/6/6 7/7/7 8/8/8
