#Palm_Tree_23825_603.obj

v 0.00538572 0.1548045 1.721925E-06
v 0.00538572 0.1548045 0.4323468
v 0.005386433 -0.163088 1.679595E-06
v 0.005386433 -0.1630881 0.4323468
v -0.156241 -0.009194122 1.700087E-06
v -0.156241 -0.009194179 0.4323468
v 0.1616511 -0.009194261 1.700087E-06
v 0.1616511 -0.009194319 0.4323468

vn -0.7075195 0 0.706543
vn -0.7075195 0 0.706543
vn -0.7075195 0 0.706543
vn -0.7075195 0 0.706543
vn -0.706543 0 -0.7075195
vn -0.706543 0 -0.7075195
vn -0.706543 0 -0.7075195
vn -0.706543 0 -0.7075195

vt 0.1542969 0.9985352
vt 0.001263618 0.9985352
vt 0.1542969 0.8876953
vt 0.001263618 0.8876953
vt 0.1542969 0.9985352
vt 0.001263618 0.9985352
vt 0.1542969 0.8876953
vt 0.001263618 0.8876953

g Palm_Tree_23825_603
usemtl Palm_Tree_23825_603
usemap Palm_Tree_23825_603
f 1/1/1 3/3/3 2/2/2
f 2/2/2 3/3/3 4/4/4
f 5/5/5 7/7/7 6/6/6
f 6/6/6 7/7/7 8/8/8
