#Palm_Tree_23516_400.obj

v 0.005384025 0.1548069 1.759472E-06
v 0.005384025 0.1548068 0.4323469
v 0.005384574 -0.1630857 1.717142E-06
v 0.005384574 -0.1630857 0.4323468
v -0.156242 -0.00919093 1.737634E-06
v -0.156242 -0.009190988 0.4323469
v 0.161651 -0.009191974 1.737634E-06
v 0.161651 -0.009192031 0.4323469

vn -0.7075195 0 0.706543
vn -0.7075195 0 0.706543
vn -0.7075195 0 0.706543
vn -0.7075195 0 0.706543
vn -0.706543 0 -0.7075195
vn -0.706543 0 -0.7075195
vn -0.706543 0 -0.7075195
vn -0.706543 0 -0.7075195

vt 0.1542969 0.9985352
vt 0.001263618 0.9985352
vt 0.1542969 0.8876953
vt 0.001263618 0.8876953
vt 0.1542969 0.9985352
vt 0.001263618 0.9985352
vt 0.1542969 0.8876953
vt 0.001263618 0.8876953

g Palm_Tree_23516_400
usemtl Palm_Tree_23516_400
usemap Palm_Tree_23516_400
f 1/1/1 3/3/3 2/2/2
f 2/2/2 3/3/3 4/4/4
f 5/5/5 7/7/7 6/6/6
f 6/6/6 7/7/7 8/8/8
