#Palm_Tree_(127)_23888_470.obj

v 0.1616519 -0.009193311 1.838508E-06
v 0.1616516 -0.009193085 0.432347
v -0.1562399 -0.009193099 0.432347
v -0.1562396 -0.009193325 1.825121E-06
v 0.005386446 -0.1630868 1.874921E-06
v 0.005385806 -0.1630878 0.432347
v 0.005384943 0.1548049 0.432347
v 0.005385272 0.1548047 1.756528E-06

vn -0.2626953 3.039837E-06 -0.9648438
vn -0.2626953 3.039837E-06 -0.9648438
vn -0.2626953 3.039837E-06 -0.9648438
vn -0.2626953 3.039837E-06 -0.9648438
vn 0.9648438 -5.960464E-08 -0.2626953
vn 0.9648438 -5.960464E-08 -0.2626953
vn 0.9648438 -5.960464E-08 -0.2626953
vn 0.9648438 -5.960464E-08 -0.2626953

vt 0.1542969 0.8876953
vt 0.001263618 0.8876953
vt 0.001263618 0.9985352
vt 0.1542969 0.9985352
vt 0.1542969 0.8876953
vt 0.001263618 0.8876953
vt 0.001263618 0.9985352
vt 0.1542969 0.9985352

g Palm_Tree_(127)_23888_470
usemtl Palm_Tree_(127)_23888_470
usemap Palm_Tree_(127)_23888_470
f 1/1/1 3/3/3 2/2/2
f 1/1/1 4/4/4 3/3/3
f 5/5/5 7/7/7 6/6/6
f 5/5/5 8/8/8 7/7/7
