#Palm_Tree_23676_539.obj

v 0.1616537 -0.009192293 1.700088E-06
v 0.1616537 -0.00919235 0.4323468
v -0.1562401 -0.009192998 0.4323468
v -0.1562401 -0.00919294 1.700088E-06
v 0.005386848 -0.1630873 1.679595E-06
v 0.005386848 -0.1630873 0.4323468
v 0.005387053 0.1548052 0.4323468
v 0.005387053 0.1548053 1.721925E-06

vn -0.7075195 0 -0.706543
vn -0.7075195 0 -0.706543
vn -0.7075195 0 -0.706543
vn -0.7075195 0 -0.706543
vn 0.706543 0 -0.7075195
vn 0.706543 0 -0.7075195
vn 0.706543 0 -0.7075195
vn 0.706543 0 -0.7075195

vt 0.1542969 0.8876953
vt 0.001263618 0.8876953
vt 0.001263618 0.9985352
vt 0.1542969 0.9985352
vt 0.1542969 0.8876953
vt 0.001263618 0.8876953
vt 0.001263618 0.9985352
vt 0.1542969 0.9985352

g Palm_Tree_23676_539
usemtl Palm_Tree_23676_539
usemap Palm_Tree_23676_539
f 1/1/1 3/3/3 2/2/2
f 1/1/1 4/4/4 3/3/3
f 5/5/5 7/7/7 6/6/6
f 5/5/5 8/8/8 7/7/7
