#Palm_Tree_22864_503.obj

v 0.005386734 0.1548056 1.759472E-06
v 0.005386734 0.1548055 0.4323469
v 0.005386342 -0.1630868 1.717142E-06
v 0.005386342 -0.1630868 0.4323468
v -0.1562402 -0.009192794 1.737634E-06
v -0.1562402 -0.009192851 0.4323469
v 0.161653 -0.009191578 1.737634E-06
v 0.161653 -0.009191636 0.4323469

vn -0.706543 0 -0.7075195
vn -0.706543 0 -0.7075195
vn -0.706543 0 -0.7075195
vn -0.706543 0 -0.7075195
vn 0.7075195 0 -0.706543
vn 0.7075195 0 -0.706543
vn 0.7075195 0 -0.706543
vn 0.7075195 0 -0.706543

vt 0.1542969 0.9985352
vt 0.001263618 0.9985352
vt 0.1542969 0.8876953
vt 0.001263618 0.8876953
vt 0.1542969 0.9985352
vt 0.001263618 0.9985352
vt 0.1542969 0.8876953
vt 0.001263618 0.8876953

g Palm_Tree_22864_503
usemtl Palm_Tree_22864_503
usemap Palm_Tree_22864_503
f 1/1/1 3/3/3 2/2/2
f 2/2/2 3/3/3 4/4/4
f 5/5/5 7/7/7 6/6/6
f 6/6/6 7/7/7 8/8/8
