#Palm_Tree_23354_271.obj

v 0.00538517 0.1548051 1.721925E-06
v 0.00538517 0.154805 0.4323468
v 0.005385882 -0.1630875 1.679595E-06
v 0.005385882 -0.1630875 0.4323468
v -0.1562415 -0.009193584 1.700087E-06
v -0.1562415 -0.009193642 0.4323468
v 0.1616506 -0.009193724 1.700087E-06
v 0.1616506 -0.009193782 0.4323468

vn -0.7075195 0 0.706543
vn -0.7075195 0 0.706543
vn -0.7075195 0 0.706543
vn -0.7075195 0 0.706543
vn -0.706543 0 -0.7075195
vn -0.706543 0 -0.7075195
vn -0.706543 0 -0.7075195
vn -0.706543 0 -0.7075195

vt 0.1542969 0.9985352
vt 0.001263618 0.9985352
vt 0.1542969 0.8876953
vt 0.001263618 0.8876953
vt 0.1542969 0.9985352
vt 0.001263618 0.9985352
vt 0.1542969 0.8876953
vt 0.001263618 0.8876953

g Palm_Tree_23354_271
usemtl Palm_Tree_23354_271
usemap Palm_Tree_23354_271
f 1/1/1 3/3/3 2/2/2
f 2/2/2 3/3/3 4/4/4
f 5/5/5 7/7/7 6/6/6
f 6/6/6 7/7/7 8/8/8
