#Palm_Tree_22678_518.obj

v 0.005386078 0.1548052 1.721925E-06
v 0.005386078 0.1548051 0.4323468
v 0.005386934 -0.1630865 1.679595E-06
v 0.005386934 -0.1630866 0.4323468
v -0.1562401 -0.009192312 1.700088E-06
v -0.1562401 -0.00919237 0.4323468
v 0.1616511 -0.009192308 1.700088E-06
v 0.1616511 -0.009192366 0.4323468

vn -0.706543 0 -0.7075195
vn -0.706543 0 -0.7075195
vn -0.706543 0 -0.7075195
vn -0.706543 0 -0.7075195
vn 0.7075195 0 -0.706543
vn 0.7075195 0 -0.706543
vn 0.7075195 0 -0.706543
vn 0.7075195 0 -0.706543

vt 0.1542969 0.9985352
vt 0.001263618 0.9985352
vt 0.1542969 0.8876953
vt 0.001263618 0.8876953
vt 0.1542969 0.9985352
vt 0.001263618 0.9985352
vt 0.1542969 0.8876953
vt 0.001263618 0.8876953

g Palm_Tree_22678_518
usemtl Palm_Tree_22678_518
usemap Palm_Tree_22678_518
f 1/1/1 3/3/3 2/2/2
f 2/2/2 3/3/3 4/4/4
f 5/5/5 7/7/7 6/6/6
f 6/6/6 7/7/7 8/8/8
