#Palm_Tree_(126)_23930_245.obj

v 0.1616515 -0.009192867 1.99182E-06
v 0.1616512 -0.009192689 0.4323471
v -0.1562413 -0.009192662 0.4323471
v -0.1562409 -0.00919284 1.978433E-06
v 0.005386826 -0.1630877 2.009465E-06
v 0.005386484 -0.1630875 0.4323471
v 0.00538651 0.1548046 0.4323471
v 0.005386852 0.1548044 1.928615E-06

vn -0.2626953 3.039837E-06 -0.9648438
vn -0.2626953 3.039837E-06 -0.9648438
vn -0.2626953 3.039837E-06 -0.9648438
vn -0.2626953 3.039837E-06 -0.9648438
vn 0.9648438 -5.960464E-08 -0.2626953
vn 0.9648438 -5.960464E-08 -0.2626953
vn 0.9648438 -5.960464E-08 -0.2626953
vn 0.9648438 -5.960464E-08 -0.2626953

vt 0.1542969 0.8876953
vt 0.001263618 0.8876953
vt 0.001263618 0.9985352
vt 0.1542969 0.9985352
vt 0.1542969 0.8876953
vt 0.001263618 0.8876953
vt 0.001263618 0.9985352
vt 0.1542969 0.9985352

g Palm_Tree_(126)_23930_245
usemtl Palm_Tree_(126)_23930_245
usemap Palm_Tree_(126)_23930_245
f 1/1/1 3/3/3 2/2/2
f 1/1/1 4/4/4 3/3/3
f 5/5/5 7/7/7 6/6/6
f 5/5/5 8/8/8 7/7/7
