#Palm_Tree_23067_989.obj

v 0.005385967 0.1548047 1.80806E-06
v 0.005385967 0.1548043 0.4323469
v 0.005386038 -0.1630874 1.511751E-06
v 0.005386038 -0.1630878 0.4323466
v -0.1562406 -0.009192946 1.655197E-06
v -0.1562406 -0.00919335 0.4323468
v 0.1616517 -0.009192871 1.655197E-06
v 0.1616517 -0.009193273 0.4323468

vn -0.9995117 0 -0.03591919
vn -0.9995117 0 -0.03591919
vn -0.9995117 0 -0.03591919
vn -0.9995117 0 -0.03591919
vn 0.03591919 0 -0.9995117
vn 0.03591919 0 -0.9995117
vn 0.03591919 0 -0.9995117
vn 0.03591919 0 -0.9995117

vt 0.1542969 0.9985352
vt 0.001263618 0.9985352
vt 0.1542969 0.8876953
vt 0.001263618 0.8876953
vt 0.1542969 0.9985352
vt 0.001263618 0.9985352
vt 0.1542969 0.8876953
vt 0.001263618 0.8876953

g Palm_Tree_23067_989
usemtl Palm_Tree_23067_989
usemap Palm_Tree_23067_989
f 1/1/1 3/3/3 2/2/2
f 2/2/2 3/3/3 4/4/4
f 5/5/5 7/7/7 6/6/6
f 6/6/6 7/7/7 8/8/8
