#Palm_Tree_23452_915.obj

v 0.1616503 -0.0091919 1.737634E-06
v 0.1616503 -0.009191957 0.4323469
v -0.1562418 -0.009191818 0.4323469
v -0.1562418 -0.00919176 1.737634E-06
v 0.005384747 -0.1630865 1.717142E-06
v 0.005384747 -0.1630865 0.4323468
v 0.005384887 0.1548051 0.4323469
v 0.005384887 0.1548052 1.759471E-06

vn 0.706543 0 -0.7075195
vn 0.706543 0 -0.7075195
vn 0.706543 0 -0.7075195
vn 0.706543 0 -0.7075195
vn 0.7075195 0 0.706543
vn 0.7075195 0 0.706543
vn 0.7075195 0 0.706543
vn 0.7075195 0 0.706543

vt 0.1542969 0.8876953
vt 0.001263618 0.8876953
vt 0.001263618 0.9985352
vt 0.1542969 0.9985352
vt 0.1542969 0.8876953
vt 0.001263618 0.8876953
vt 0.001263618 0.9985352
vt 0.1542969 0.9985352

g Palm_Tree_23452_915
usemtl Palm_Tree_23452_915
usemap Palm_Tree_23452_915
f 1/1/1 3/3/3 2/2/2
f 1/1/1 4/4/4 3/3/3
f 5/5/5 7/7/7 6/6/6
f 5/5/5 8/8/8 7/7/7
