#Palm_Tree_(108)_23983_453.obj

v 0.1616506 -0.009192177 1.833745E-06
v 0.1616503 -0.009191983 0.432347
v -0.1562405 -0.009192432 0.432347
v -0.1562425 -0.009192004 1.828373E-06
v 0.005384065 -0.163087 1.86266E-06
v 0.005383747 -0.1630868 0.432347
v 0.00538477 0.1548046 0.4323469
v 0.005385088 0.1548044 1.767903E-06

vn 0.9648438 2.980232E-06 -0.2626953
vn 0.9648438 2.980232E-06 -0.2626953
vn 0.9648438 2.980232E-06 -0.2626953
vn 0.9648438 2.980232E-06 -0.2626953
vn 0.2626953 0 0.9648438
vn 0.2626953 0 0.9648438
vn 0.2626953 0 0.9648438
vn 0.2626953 0 0.9648438

vt 0.1542969 0.8876953
vt 0.001263618 0.8876953
vt 0.001263618 0.9985352
vt 0.1542969 0.9985352
vt 0.1542969 0.8876953
vt 0.001263618 0.8876953
vt 0.001263618 0.9985352
vt 0.1542969 0.9985352

g Palm_Tree_(108)_23983_453
usemtl Palm_Tree_(108)_23983_453
usemap Palm_Tree_(108)_23983_453
f 1/1/1 3/3/3 2/2/2
f 1/1/1 4/4/4 3/3/3
f 5/5/5 7/7/7 6/6/6
f 5/5/5 8/8/8 7/7/7
