#Palm_Tree_22680_772.obj

v 0.005386156 0.1548046 1.684379E-06
v 0.005386156 0.1548045 0.4323468
v 0.00538596 -0.163088 1.642049E-06
v 0.00538596 -0.163088 0.4323467
v -0.1562406 -0.009194063 1.662541E-06
v -0.1562406 -0.009194121 0.4323468
v 0.1616515 -0.009193413 1.662541E-06
v 0.1616515 -0.00919347 0.4323468

vn -0.706543 0 -0.7075195
vn -0.706543 0 -0.7075195
vn -0.706543 0 -0.7075195
vn -0.706543 0 -0.7075195
vn 0.7075195 0 -0.706543
vn 0.7075195 0 -0.706543
vn 0.7075195 0 -0.706543
vn 0.7075195 0 -0.706543

vt 0.1542969 0.9985352
vt 0.001263618 0.9985352
vt 0.1542969 0.8876953
vt 0.001263618 0.8876953
vt 0.1542969 0.9985352
vt 0.001263618 0.9985352
vt 0.1542969 0.8876953
vt 0.001263618 0.8876953

g Palm_Tree_22680_772
usemtl Palm_Tree_22680_772
usemap Palm_Tree_22680_772
f 1/1/1 3/3/3 2/2/2
f 2/2/2 3/3/3 4/4/4
f 5/5/5 7/7/7 6/6/6
f 6/6/6 7/7/7 8/8/8
