#Palm_Tree_23747_859.obj

v 0.005386143 0.154805 1.909656E-06
v 0.005386143 0.1548049 0.432347
v 0.005386645 -0.1630878 1.867326E-06
v 0.005386645 -0.1630878 0.432347
v -0.1562399 -0.009193056 1.887818E-06
v -0.1562399 -0.009193114 0.432347
v 0.1616522 -0.009193196 1.887818E-06
v 0.1616522 -0.009193254 0.432347

vn -0.7075195 0 0.706543
vn -0.7075195 0 0.706543
vn -0.7075195 0 0.706543
vn -0.7075195 0 0.706543
vn -0.706543 0 -0.7075195
vn -0.706543 0 -0.7075195
vn -0.706543 0 -0.7075195
vn -0.706543 0 -0.7075195

vt 0.1542969 0.9985352
vt 0.001263618 0.9985352
vt 0.1542969 0.8876953
vt 0.001263618 0.8876953
vt 0.1542969 0.9985352
vt 0.001263618 0.9985352
vt 0.1542969 0.8876953
vt 0.001263618 0.8876953

g Palm_Tree_23747_859
usemtl Palm_Tree_23747_859
usemap Palm_Tree_23747_859
f 1/1/1 3/3/3 2/2/2
f 2/2/2 3/3/3 4/4/4
f 5/5/5 7/7/7 6/6/6
f 6/6/6 7/7/7 8/8/8
