#Palm_Tree_23632_832.obj

v 0.005385802 0.1548042 1.808059E-06
v 0.005385802 0.1548038 0.4323469
v 0.005385729 -0.1630877 1.51175E-06
v 0.005385729 -0.1630881 0.4323466
v -0.1562404 -0.009193402 1.655196E-06
v -0.1562404 -0.009193805 0.4323468
v 0.1616515 -0.009193316 1.655196E-06
v 0.1616515 -0.009193719 0.4323468

vn -0.9995117 0 -0.03591919
vn -0.9995117 0 -0.03591919
vn -0.9995117 0 -0.03591919
vn -0.9995117 0 -0.03591919
vn 0.03591919 0 -0.9995117
vn 0.03591919 0 -0.9995117
vn 0.03591919 0 -0.9995117
vn 0.03591919 0 -0.9995117

vt 0.1542969 0.9985352
vt 0.001263618 0.9985352
vt 0.1542969 0.8876953
vt 0.001263618 0.8876953
vt 0.1542969 0.9985352
vt 0.001263618 0.9985352
vt 0.1542969 0.8876953
vt 0.001263618 0.8876953

g Palm_Tree_23632_832
usemtl Palm_Tree_23632_832
usemap Palm_Tree_23632_832
f 1/1/1 3/3/3 2/2/2
f 2/2/2 3/3/3 4/4/4
f 5/5/5 7/7/7 6/6/6
f 6/6/6 7/7/7 8/8/8
