#Palm_Tree_23310_790.obj

v 0.00538553 0.154804 1.721925E-06
v 0.00538553 0.1548039 0.4323468
v 0.005387226 -0.1630893 1.679595E-06
v 0.005387226 -0.1630893 0.4323468
v -0.1562393 -0.009194856 1.700087E-06
v -0.1562393 -0.009194913 0.4323468
v 0.1616516 -0.009195 1.700087E-06
v 0.1616516 -0.009195058 0.4323468

vn -0.2155762 0 0.9765625
vn -0.2155762 0 0.9765625
vn -0.2155762 0 0.9765625
vn -0.2155762 0 0.9765625
vn -0.9765625 0 -0.2155762
vn -0.9765625 0 -0.2155762
vn -0.9765625 0 -0.2155762
vn -0.9765625 0 -0.2155762

vt 0.1542969 0.9985352
vt 0.001263618 0.9985352
vt 0.1542969 0.8876953
vt 0.001263618 0.8876953
vt 0.1542969 0.9985352
vt 0.001263618 0.9985352
vt 0.1542969 0.8876953
vt 0.001263618 0.8876953

g Palm_Tree_23310_790
usemtl Palm_Tree_23310_790
usemap Palm_Tree_23310_790
f 1/1/1 3/3/3 2/2/2
f 2/2/2 3/3/3 4/4/4
f 5/5/5 7/7/7 6/6/6
f 6/6/6 7/7/7 8/8/8
