#Palm_Tree_(15)_23985_437.obj

v 0.1616518 -0.009193534 1.947349E-06
v 0.1616518 -0.009192613 0.4323471
v -0.1562402 -0.009191717 0.4323471
v -0.1562402 -0.009192638 1.947347E-06
v 0.005385817 -0.1630874 2.293411E-06
v 0.005385817 -0.1630865 0.4323475
v 0.005386111 0.1548054 0.4323468
v 0.005386111 0.1548045 1.578587E-06

vn 1 -1.192093E-07 -0.003913879
vn 1 -1.192093E-07 -0.003913879
vn 1 -1.192093E-07 -0.003913879
vn 1 -1.192093E-07 -0.003913879
vn 0.003913879 0 1
vn 0.003913879 0 1
vn 0.003913879 0 1
vn 0.003913879 0 1

vt 0.1542969 0.8876953
vt 0.001263618 0.8876953
vt 0.001263618 0.9985352
vt 0.1542969 0.9985352
vt 0.1542969 0.8876953
vt 0.001263618 0.8876953
vt 0.001263618 0.9985352
vt 0.1542969 0.9985352

g Palm_Tree_(15)_23985_437
usemtl Palm_Tree_(15)_23985_437
usemap Palm_Tree_(15)_23985_437
f 1/1/1 3/3/3 2/2/2
f 1/1/1 4/4/4 3/3/3
f 5/5/5 7/7/7 6/6/6
f 5/5/5 8/8/8 7/7/7
