#Palm_Tree_23517_402.obj

v 0.005385043 0.1548059 1.909656E-06
v 0.005385043 0.1548058 0.432347
v 0.005384771 -0.1630859 1.867326E-06
v 0.005384771 -0.163086 0.432347
v -0.1562418 -0.009191244 1.887819E-06
v -0.1562418 -0.009191302 0.432347
v 0.1616503 -0.009191351 1.887819E-06
v 0.1616503 -0.009191409 0.432347

vn -0.7075195 0 0.706543
vn -0.7075195 0 0.706543
vn -0.7075195 0 0.706543
vn -0.7075195 0 0.706543
vn -0.706543 0 -0.7075195
vn -0.706543 0 -0.7075195
vn -0.706543 0 -0.7075195
vn -0.706543 0 -0.7075195

vt 0.1542969 0.9985352
vt 0.001263618 0.9985352
vt 0.1542969 0.8876953
vt 0.001263618 0.8876953
vt 0.1542969 0.9985352
vt 0.001263618 0.9985352
vt 0.1542969 0.8876953
vt 0.001263618 0.8876953

g Palm_Tree_23517_402
usemtl Palm_Tree_23517_402
usemap Palm_Tree_23517_402
f 1/1/1 3/3/3 2/2/2
f 2/2/2 3/3/3 4/4/4
f 5/5/5 7/7/7 6/6/6
f 6/6/6 7/7/7 8/8/8
