#Palm_Tree_23446_228.obj

v 0.005386027 0.1548047 1.80806E-06
v 0.005386027 0.1548043 0.4323469
v 0.00538606 -0.1630873 1.511751E-06
v 0.00538606 -0.1630877 0.4323466
v -0.1562402 -0.009193017 1.655197E-06
v -0.1562402 -0.009193419 0.4323468
v 0.1616517 -0.00919301 1.655197E-06
v 0.1616517 -0.009193413 0.4323468

vn -0.03591919 0 0.9995117
vn -0.03591919 0 0.9995117
vn -0.03591919 0 0.9995117
vn -0.03591919 0 0.9995117
vn -0.9995117 0 -0.03591919
vn -0.9995117 0 -0.03591919
vn -0.9995117 0 -0.03591919
vn -0.9995117 0 -0.03591919

vt 0.1542969 0.9985352
vt 0.001263618 0.9985352
vt 0.1542969 0.8876953
vt 0.001263618 0.8876953
vt 0.1542969 0.9985352
vt 0.001263618 0.9985352
vt 0.1542969 0.8876953
vt 0.001263618 0.8876953

g Palm_Tree_23446_228
usemtl Palm_Tree_23446_228
usemap Palm_Tree_23446_228
f 1/1/1 3/3/3 2/2/2
f 2/2/2 3/3/3 4/4/4
f 5/5/5 7/7/7 6/6/6
f 6/6/6 7/7/7 8/8/8
