#Palm_Tree_23815_468.obj

v 0.005385717 0.1548054 1.909656E-06
v 0.005385717 0.1548053 0.432347
v 0.005385792 -0.1630869 1.867326E-06
v 0.005385792 -0.163087 0.432347
v -0.1562403 -0.009192633 1.887818E-06
v -0.1562403 -0.00919269 0.432347
v 0.1616518 -0.009192772 1.887818E-06
v 0.1616518 -0.00919283 0.432347

vn -0.7075195 0 0.706543
vn -0.7075195 0 0.706543
vn -0.7075195 0 0.706543
vn -0.7075195 0 0.706543
vn -0.706543 0 -0.7075195
vn -0.706543 0 -0.7075195
vn -0.706543 0 -0.7075195
vn -0.706543 0 -0.7075195

vt 0.1542969 0.9985352
vt 0.001263618 0.9985352
vt 0.1542969 0.8876953
vt 0.001263618 0.8876953
vt 0.1542969 0.9985352
vt 0.001263618 0.9985352
vt 0.1542969 0.8876953
vt 0.001263618 0.8876953

g Palm_Tree_23815_468
usemtl Palm_Tree_23815_468
usemap Palm_Tree_23815_468
f 1/1/1 3/3/3 2/2/2
f 2/2/2 3/3/3 4/4/4
f 5/5/5 7/7/7 6/6/6
f 6/6/6 7/7/7 8/8/8
