#Palm_Tree_22578_473.obj

v 0.005385294 0.154805 1.721925E-06
v 0.005385294 0.1548049 0.4323468
v 0.00538558 -0.1630872 1.679595E-06
v 0.00538558 -0.1630872 0.4323468
v -0.1562414 -0.009193698 1.700087E-06
v -0.1562414 -0.009193756 0.4323468
v 0.1616507 -0.009193838 1.700087E-06
v 0.1616507 -0.009193895 0.4323468

vn -0.7075195 0 0.706543
vn -0.7075195 0 0.706543
vn -0.7075195 0 0.706543
vn -0.7075195 0 0.706543
vn -0.706543 0 -0.7075195
vn -0.706543 0 -0.7075195
vn -0.706543 0 -0.7075195
vn -0.706543 0 -0.7075195

vt 0.1542969 0.9985352
vt 0.001263618 0.9985352
vt 0.1542969 0.8876953
vt 0.001263618 0.8876953
vt 0.1542969 0.9985352
vt 0.001263618 0.9985352
vt 0.1542969 0.8876953
vt 0.001263618 0.8876953

g Palm_Tree_22578_473
usemtl Palm_Tree_22578_473
usemap Palm_Tree_22578_473
f 1/1/1 3/3/3 2/2/2
f 2/2/2 3/3/3 4/4/4
f 5/5/5 7/7/7 6/6/6
f 6/6/6 7/7/7 8/8/8
