#Palm_Tree_23637_368.obj

v 0.005385519 0.1548064 1.909656E-06
v 0.005385519 0.1548063 0.432347
v 0.00538538 -0.1630853 1.867326E-06
v 0.00538538 -0.1630854 0.432347
v -0.1562411 -0.009190578 1.887819E-06
v -0.1562411 -0.009190636 0.432347
v 0.1616509 -0.009190718 1.887819E-06
v 0.1616509 -0.009190775 0.432347

vn -0.7075195 0 0.706543
vn -0.7075195 0 0.706543
vn -0.7075195 0 0.706543
vn -0.7075195 0 0.706543
vn -0.706543 0 -0.7075195
vn -0.706543 0 -0.7075195
vn -0.706543 0 -0.7075195
vn -0.706543 0 -0.7075195

vt 0.1542969 0.9985352
vt 0.001263618 0.9985352
vt 0.1542969 0.8876953
vt 0.001263618 0.8876953
vt 0.1542969 0.9985352
vt 0.001263618 0.9985352
vt 0.1542969 0.8876953
vt 0.001263618 0.8876953

g Palm_Tree_23637_368
usemtl Palm_Tree_23637_368
usemap Palm_Tree_23637_368
f 1/1/1 3/3/3 2/2/2
f 2/2/2 3/3/3 4/4/4
f 5/5/5 7/7/7 6/6/6
f 6/6/6 7/7/7 8/8/8
