#Palm_Tree_22883_461.obj

v 0.005385822 0.1548048 1.80806E-06
v 0.005385822 0.1548044 0.4323469
v 0.005385813 -0.1630874 1.511751E-06
v 0.005385813 -0.1630878 0.4323466
v -0.1562405 -0.009192799 1.655197E-06
v -0.1562405 -0.009193202 0.4323468
v 0.1616515 -0.009193013 1.655197E-06
v 0.1616515 -0.009193417 0.4323468

vn -0.9995117 0 -0.03591919
vn -0.9995117 0 -0.03591919
vn -0.9995117 0 -0.03591919
vn -0.9995117 0 -0.03591919
vn 0.03591919 0 -0.9995117
vn 0.03591919 0 -0.9995117
vn 0.03591919 0 -0.9995117
vn 0.03591919 0 -0.9995117

vt 0.1542969 0.9985352
vt 0.001263618 0.9985352
vt 0.1542969 0.8876953
vt 0.001263618 0.8876953
vt 0.1542969 0.9985352
vt 0.001263618 0.9985352
vt 0.1542969 0.8876953
vt 0.001263618 0.8876953

g Palm_Tree_22883_461
usemtl Palm_Tree_22883_461
usemap Palm_Tree_22883_461
f 1/1/1 3/3/3 2/2/2
f 2/2/2 3/3/3 4/4/4
f 5/5/5 7/7/7 6/6/6
f 6/6/6 7/7/7 8/8/8
