#Palm_Tree_22620_316.obj

v 0.005386512 0.1548051 1.845606E-06
v 0.005386512 0.1548047 0.4323469
v 0.005385907 -0.1630875 1.549297E-06
v 0.005385907 -0.1630879 0.4323466
v -0.1562398 -0.009193436 1.692742E-06
v -0.1562398 -0.00919384 0.4323468
v 0.1616519 -0.009192802 1.692743E-06
v 0.1616519 -0.009193205 0.4323468

vn -0.9995117 0 -0.03591919
vn -0.9995117 0 -0.03591919
vn -0.9995117 0 -0.03591919
vn -0.9995117 0 -0.03591919
vn 0.03591919 0 -0.9995117
vn 0.03591919 0 -0.9995117
vn 0.03591919 0 -0.9995117
vn 0.03591919 0 -0.9995117

vt 0.1542969 0.9985352
vt 0.001263618 0.9985352
vt 0.1542969 0.8876953
vt 0.001263618 0.8876953
vt 0.1542969 0.9985352
vt 0.001263618 0.9985352
vt 0.1542969 0.8876953
vt 0.001263618 0.8876953

g Palm_Tree_22620_316
usemtl Palm_Tree_22620_316
usemap Palm_Tree_22620_316
f 1/1/1 3/3/3 2/2/2
f 2/2/2 3/3/3 4/4/4
f 5/5/5 7/7/7 6/6/6
f 6/6/6 7/7/7 8/8/8
